<?xml version="1.0" encoding="utf-8"?>
<!-- Generator: Adobe Illustrator 25.3.1, SVG Export Plug-In . SVG Version: 6.00 Build 0)  -->
<svg version="1.1" id="Слой_1" xmlns="http://www.w3.org/2000/svg" xmlns:xlink="http://www.w3.org/1999/xlink" x="0px"
  y="0px" viewBox="0 0 200 200" style="enable-background:new 0 0 200 200;" xml:space="preserve">
  <style type="text/css">
    .st0 {
      fill: #3f729b;
    }

    .st1 {
      fill: #FFFFFF;
    }
  </style>
  <path class="st0" d="M100,200L100,200c55.3,0,100-44.7,100-100v0C200,44.8,155.2,0,100,0h0C44.8,0,0,44.8,0,100v0
	C0,155.3,44.7,200,100,200z" />
  <g id="instagram_3_">
    <path class="st1"
      d="M100,58c13.7,0,15.3,0.1,20.7,0.3c5,0.2,7.7,1.1,9.5,1.8c2.4,0.9,4.1,2,5.9,3.8c1.8,1.8,2.9,3.5,3.8,5.9
		c0.7,1.8,1.5,4.5,1.8,9.5c0.2,5.4,0.3,7,0.3,20.7c0,13.7-0.1,15.3-0.3,20.7c-0.2,5-1.1,7.7-1.8,9.5c-0.9,2.4-2,4.1-3.8,5.9
		c-1.8,1.8-3.5,2.9-5.9,3.8c-1.8,0.7-4.5,1.5-9.5,1.8c-5.4,0.2-7,0.3-20.7,0.3s-15.3-0.1-20.7-0.3c-5-0.2-7.7-1.1-9.5-1.8
		c-2.4-0.9-4.1-2-5.9-3.8c-1.8-1.8-2.9-3.5-3.8-5.9c-0.7-1.8-1.5-4.5-1.8-9.5c-0.2-5.4-0.3-7-0.3-20.7c0-13.7,0.1-15.3,0.3-20.7
		c0.2-5,1.1-7.7,1.8-9.5c0.9-2.4,2-4.1,3.8-5.9c1.8-1.8,3.5-2.9,5.9-3.8c1.8-0.7,4.5-1.5,9.5-1.8C84.7,58,86.3,58,100,58 M100,48.7
		c-13.9,0-15.7,0.1-21.1,0.3c-5.5,0.2-9.2,1.1-12.4,2.4c-3.4,1.3-6.2,3.1-9.1,5.9s-4.6,5.7-5.9,9.1c-1.3,3.3-2.1,7-2.4,12.4
		c-0.2,5.5-0.3,7.2-0.3,21.1c0,13.9,0.1,15.7,0.3,21.1c0.2,5.5,1.1,9.2,2.4,12.4c1.3,3.4,3.1,6.2,5.9,9.1c2.9,2.9,5.7,4.6,9.1,5.9
		c3.3,1.3,7,2.1,12.4,2.4c5.5,0.2,7.2,0.3,21.1,0.3s15.7-0.1,21.1-0.3c5.5-0.2,9.2-1.1,12.4-2.4c3.4-1.3,6.2-3.1,9.1-5.9
		c2.9-2.9,4.6-5.7,5.9-9.1c1.3-3.3,2.1-7,2.4-12.4c0.2-5.5,0.3-7.2,0.3-21.1s-0.1-15.7-0.3-21.1c-0.2-5.5-1.1-9.2-2.4-12.4
		c-1.3-3.4-3.1-6.2-5.9-9.1c-2.9-2.9-5.7-4.6-9.1-5.9c-3.3-1.3-7-2.1-12.4-2.4C115.7,48.8,113.9,48.7,100,48.7L100,48.7z" />
    <path class="st1" d="M100,73.7c-14.5,0-26.3,11.8-26.3,26.3s11.8,26.3,26.3,26.3s26.3-11.8,26.3-26.3S114.5,73.7,100,73.7z
		 M100,117.1c-9.4,0-17.1-7.7-17.1-17.1s7.7-17.1,17.1-17.1s17.1,7.7,17.1,17.1S109.4,117.1,100,117.1z" />
    <circle class="st1" cx="127.4" cy="72.6" r="6.2" />
  </g>
</svg>
