<?xml version="1.0" encoding="utf-8"?>
<!-- Generator: Adobe Illustrator 25.3.1, SVG Export Plug-In . SVG Version: 6.00 Build 0)  -->
<svg version="1.1" id="Слой_1" xmlns="http://www.w3.org/2000/svg" xmlns:xlink="http://www.w3.org/1999/xlink" x="0px"
  y="0px" viewBox="0 0 200 200" style="enable-background:new 0 0 200 200;" xml:space="preserve">
  <style type="text/css">
    .st1 {
      fill: #fff;
    }

    .st0 {
      fill: #08c;
    }
  </style>
  <path class="st0" d="M100,0L100,0C44.8,0,0,44.8,0,100v0c0,55.2,44.7,100,100,100h0.1c55.2,0,100-44.8,100-100v0
	C200,44.8,155.2,0,100,0z" />
  <path id="telegram_3_" class="st1" d="M141.8,59.1l-95,36c-5.2,1.5-5,6.6-1.2,7.9l23.8,7.4l9.1,27.9c1.1,3.1,2,4.2,3.9,4.2
	c2,0,2.7-0.7,4.8-2.5c2.4-2.3,6.1-5.8,11.9-11.5l24.8,18.3c4.6,2.5,7.8,1.2,9-4.2l15.5-76.8C150.1,59.1,146.2,57.1,141.8,59.1z
	 M73.2,108.6l54.1-34c2.7-1.8,3.5,0.2,2.3,1.6l-44.9,40.4l-2.3,20.2L73.2,108.6z" />
</svg>
