<?xml version="1.0" encoding="utf-8"?><svg viewBox="0 0 502.66 502.66" xmlns="http://www.w3.org/2000/svg" xmlns:xlink="http://www.w3.org/1999/xlink"><style>:root>svg{display:none}:root>svg:target{display:block}</style><svg viewBox="0 0 502.664 502.664" id="icon" xmlns="http://www.w3.org/2000/svg"><path d="M153.821 358.226L0 274.337v-46.463l153.821-83.414v54.574L46.636 250.523l107.185 53.431v54.272zm26.273 29.358L282.103 115.08h32.227L212.084 387.584h-31.99zm168.749-29.358v-54.272l107.164-52.999-107.164-52.59v-53.927l153.821 83.522v46.183l-153.821 84.083z"/></svg><svg version="1.1" id="insta" x="0" y="0" viewBox="0 0 200 200" xml:space="preserve" xmlns="http://www.w3.org/2000/svg"><style>.bst1{fill:#fff}</style><path d="M100 200c55.3 0 100-44.7 100-100C200 44.8 155.2 0 100 0S0 44.8 0 100c0 55.3 44.7 100 100 100z"/><g id="binstagram_3_"><path class="bst1" d="M100 58c13.7 0 15.3.1 20.7.3 5 .2 7.7 1.1 9.5 1.8 2.4.9 4.1 2 5.9 3.8 1.8 1.8 2.9 3.5 3.8 5.9.7 1.8 1.5 4.5 1.8 9.5.2 5.4.3 7 .3 20.7s-.1 15.3-.3 20.7c-.2 5-1.1 7.7-1.8 9.5-.9 2.4-2 4.1-3.8 5.9-1.8 1.8-3.5 2.9-5.9 3.8-1.8.7-4.5 1.5-9.5 1.8-5.4.2-7 .3-20.7.3s-15.3-.1-20.7-.3c-5-.2-7.7-1.1-9.5-1.8-2.4-.9-4.1-2-5.9-3.8-1.8-1.8-2.9-3.5-3.8-5.9-.7-1.8-1.5-4.5-1.8-9.5-.2-5.4-.3-7-.3-20.7s.1-15.3.3-20.7c.2-5 1.1-7.7 1.8-9.5.9-2.4 2-4.1 3.8-5.9 1.8-1.8 3.5-2.9 5.9-3.8 1.8-.7 4.5-1.5 9.5-1.8 5.4-.3 7-.3 20.7-.3m0-9.3c-13.9 0-15.7.1-21.1.3-5.5.2-9.2 1.1-12.4 2.4-3.4 1.3-6.2 3.1-9.1 5.9s-4.6 5.7-5.9 9.1c-1.3 3.3-2.1 7-2.4 12.4-.2 5.5-.3 7.2-.3 21.1 0 13.9.1 15.7.3 21.1.2 5.5 1.1 9.2 2.4 12.4 1.3 3.4 3.1 6.2 5.9 9.1 2.9 2.9 5.7 4.6 9.1 5.9 3.3 1.3 7 2.1 12.4 2.4 5.5.2 7.2.3 21.1.3s15.7-.1 21.1-.3c5.5-.2 9.2-1.1 12.4-2.4 3.4-1.3 6.2-3.1 9.1-5.9 2.9-2.9 4.6-5.7 5.9-9.1 1.3-3.3 2.1-7 2.4-12.4.2-5.5.3-7.2.3-21.1s-.1-15.7-.3-21.1c-.2-5.5-1.1-9.2-2.4-12.4-1.3-3.4-3.1-6.2-5.9-9.1-2.9-2.9-5.7-4.6-9.1-5.9-3.3-1.3-7-2.1-12.4-2.4-5.4-.2-7.2-.3-21.1-.3z"/><path class="bst1" d="M100 73.7c-14.5 0-26.3 11.8-26.3 26.3s11.8 26.3 26.3 26.3 26.3-11.8 26.3-26.3-11.8-26.3-26.3-26.3zm0 43.4c-9.4 0-17.1-7.7-17.1-17.1s7.7-17.1 17.1-17.1 17.1 7.7 17.1 17.1-7.7 17.1-17.1 17.1z"/><circle class="bst1" cx="127.4" cy="72.6" r="6.2"/></g></svg><svg viewBox="0 0 200 200" id="telega" xmlns="http://www.w3.org/2000/svg"><path d="M100 0C44.8 0 0 44.8 0 100s44.7 100 100 100h.1c55.2 0 100-44.8 100-100C200 44.8 155.2 0 100 0z"/><path d="M141.8 59.1l-95 36c-5.2 1.5-5 6.6-1.2 7.9l23.8 7.4 9.1 27.9c1.1 3.1 2 4.2 3.9 4.2 2 0 2.7-.7 4.8-2.5 2.4-2.3 6.1-5.8 11.9-11.5l24.8 18.3c4.6 2.5 7.8 1.2 9-4.2l15.5-76.8c1.7-6.7-2.2-8.7-6.6-6.7zm-68.6 49.5l54.1-34c2.7-1.8 3.5.2 2.3 1.6l-44.9 40.4-2.3 20.2-9.2-28.2z"/></svg><svg viewBox="0 0 200 200" id="whatsapp" xmlns="http://www.w3.org/2000/svg"><path d="M100 0C44.8 0 0 44.8 0 100s44.7 100 100 100h.1c55.2 0 100-44.8 100-100C200 44.8 155.2 0 100 0z"/><path d="M141.8 59.1l-95 36c-5.2 1.5-5 6.6-1.2 7.9l23.8 7.4 9.1 27.9c1.1 3.1 2 4.2 3.9 4.2 2 0 2.7-.7 4.8-2.5 2.4-2.3 6.1-5.8 11.9-11.5l24.8 18.3c4.6 2.5 7.8 1.2 9-4.2l15.5-76.8c1.7-6.7-2.2-8.7-6.6-6.7zm-68.6 49.5l54.1-34c2.7-1.8 3.5.2 2.3 1.6l-44.9 40.4-2.3 20.2-9.2-28.2z"/></svg></svg>