<svg width="58" height="58" fill="none" xmlns="http://www.w3.org/2000/svg"><g filter="url(#filter0_d)"><path d="M54 25c0 13.807-11.193 25-25 25S4 38.807 4 25 15.193 0 29 0s25 11.193 25 25z" fill="#ECECEC"/><g filter="url(#filter1_d)"><mask id="a" fill="#fff"><path fill-rule="evenodd" clip-rule="evenodd" d="M29.057 24.057V9h.886v15.057H45v.886H29.943V40h-.886V24.943H14v-.886h15.057z"/></mask><path fill-rule="evenodd" clip-rule="evenodd" d="M29.057 24.057V9h.886v15.057H45v.886H29.943V40h-.886V24.943H14v-.886h15.057z" fill="#666"/><path d="M29.057 24.057h1v1h-1v-1zm0-15.057h-1V8h1v1zm.886 0V8h1v1h-1zm0 15.057v1h-1v-1h1zm15.057 0v-1h1v1h-1zm0 .886h1v1h-1v-1zm-15.057 0h-1v-1h1v1zm0 15.057h1v1h-1v-1zm-.886 0v1h-1v-1h1zm0-15.057v-1h1v1h-1zm-15.057 0v1h-1v-1h1zm0-.886h-1v-1h1v1zm14.057 0V9h2v15.057h-2zm1-16.057h.886v2h-.886V8zm1.886 1v15.057h-2V9h2zm-1 14.057h7.94v2h-7.94v-2zm7.94 0H45v2h-7.117v-2zm8.117 1v.886h-2v-.886h2zm-1 1.886H29.943v-2H45v2zm-14.057-1V40h-2V24.943h2zm-1 16.057h-.886v-2h.886v2zm-1.886-1V24.943h2V40h-2zm1-14.057H14v-2h15.057v2zm-16.057-1v-.886h2v.886h-2zm1-1.886h15.057v2H14v-2z" fill="#000" mask="url(#a)"/></g></g><defs><filter id="filter0_d" x="0" y="0" width="58" height="58" filterUnits="userSpaceOnUse" color-interpolation-filters="sRGB"><feFlood flood-opacity="0" result="BackgroundImageFix"/><feColorMatrix in="SourceAlpha" values="0 0 0 0 0 0 0 0 0 0 0 0 0 0 0 0 0 0 127 0" result="hardAlpha"/><feOffset dy="4"/><feGaussianBlur stdDeviation="2"/><feComposite in2="hardAlpha" operator="out"/><feColorMatrix values="0 0 0 0 0 0 0 0 0 0 0 0 0 0 0 0 0 0 0.25 0"/><feBlend in2="BackgroundImageFix" result="effect1_dropShadow"/><feBlend in="SourceGraphic" in2="effect1_dropShadow" result="shape"/></filter><filter id="filter1_d" x="10" y="9" width="39" height="39" filterUnits="userSpaceOnUse" color-interpolation-filters="sRGB"><feFlood flood-opacity="0" result="BackgroundImageFix"/><feColorMatrix in="SourceAlpha" values="0 0 0 0 0 0 0 0 0 0 0 0 0 0 0 0 0 0 127 0" result="hardAlpha"/><feOffset dy="4"/><feGaussianBlur stdDeviation="2"/><feComposite in2="hardAlpha" operator="out"/><feColorMatrix values="0 0 0 0 0 0 0 0 0 0 0 0 0 0 0 0 0 0 0.25 0"/><feBlend in2="BackgroundImageFix" result="effect1_dropShadow"/><feBlend in="SourceGraphic" in2="effect1_dropShadow" result="shape"/></filter></defs></svg>